<svg width="1566" height="1552" viewBox="0 0 1566 1552" fill="none" xmlns="http://www.w3.org/2000/svg">
<path d="M438.698 334.176L443.862 330.2C538.606 257.257 654.683 216.944 773.494 215.719C920.848 214.201 1060.48 272.873 1158.94 377.679L1173.94 393.653C1204.31 425.976 1230.61 461.784 1252.3 500.345L1254.91 504.98C1328.4 635.603 1345.72 790.805 1303.11 937.05L1297.44 956.501C1272.42 1042.37 1223.95 1121.62 1158.56 1184.63C1124.97 1217 1086.65 1245.12 1045.52 1267.41C965.638 1310.69 875.876 1332.22 785.816 1329.69L774.961 1329.38C643.59 1325.69 519.522 1274.8 426.262 1186.36L415.894 1176.53C371.411 1134.35 334.462 1085.12 306.509 1030.79L283.586 986.247C231.519 885.059 215.403 768.912 237.731 655.781C262.741 529.069 334.301 414.552 438.698 334.176Z" stroke="#B00000" stroke-width="15"/>
<path d="M763.546 750.287L766.971 748.057C782.511 737.941 803.12 741.869 813.003 756.829C822.885 771.79 818.299 792.119 802.76 802.235L799.335 804.464C783.795 814.58 763.186 810.653 753.303 795.693C743.42 780.732 748.007 760.403 763.546 750.287Z" stroke="#B00000" stroke-width="10"/>
<path d="M1238.8 479.643L813.881 756.258L784.031 775.69M329.26 1071.74L750.669 797.407L784.031 775.69M1085.99 1232.81L803.043 804.471L784.031 775.69M477.593 311.795L766.137 748.601L784.031 775.69M832.893 785.04L816.646 782.3M816.646 782.3L1320.75 846.964M816.646 782.3L784.031 775.69M784.031 775.69L732.775 770.319C541.202 721.53 433.795 694.177 242.222 645.388M784.031 775.69L769.682 826.189L684.264 1314.56M784.031 775.69L795.986 729.169L915.331 233.235M784.031 775.69L769.425 688.959L685.563 221.806M784.031 775.69L714.115 724.965L314.197 463.559M784.031 775.69L566.622 820.98L247.47 880.45M784.031 775.69L722.712 856.765L654.974 954.731L484.008 1238.53M784.031 775.69L802.467 858.716L837.067 1029.88L894.588 1317.47M784.031 775.69L857.777 822.71L1005.19 920.433L1241.29 1075.43M784.031 775.69L890.837 747.319L1029.85 710.692L1314.12 649.723M784.031 775.69L847.5 681.714L927.367 569.8L1094.07 316.616" stroke="#B00000" stroke-width="10"/>
<path d="M1258.91 551.896L1239.13 560.684M1179.81 587.047L1219.36 569.472M1219.36 569.472L1251.3 584.088M1219.36 569.472L1239.13 560.684M1239.13 560.684L1267.98 573.229" stroke="#B00000" stroke-width="5"/>
<path d="M1229.67 730.769L1294.66 726.305L1274.08 779.84L1231.96 782.733" stroke="#B00000" stroke-width="5"/>
<path d="M1266.8 945.726L1240.55 937.864M1174.67 918.133L1204.39 927.034M1204.39 927.034L1212.7 964.256L1240.55 937.864M1204.39 927.034L1240.55 937.864" stroke="#B00000" stroke-width="5"/>
<path d="M1092.75 1067.14L1143.81 1110.68M1115.79 1135.78L1166.85 1130.32L1143.81 1110.68M1143.81 1110.68L1109.76 1115" stroke="#B00000" stroke-width="5"/>
<path d="M981.423 1166.89L997.116 1205.87M997.116 1205.87L1012.81 1244.85L972.717 1234.45L997.116 1205.87ZM997.116 1205.87L955.084 1180.42" stroke="#B00000" stroke-width="5"/>
<path d="M771.624 1291.77L826.948 1253.62L793.952 1206.65" stroke="#B00000" stroke-width="5"/>
<path d="M643.996 1266.09L617.421 1206.4M590.845 1146.71L617.421 1206.4M617.421 1206.4L573.39 1233.59L660.176 1180M522.978 1053.46L484.794 1097.02M484.794 1097.02L446.611 1140.58L437.42 1085.72L484.794 1097.02ZM343.452 1006.83L367.275 992.116M421.304 958.753L367.275 992.116M367.275 992.116L371.022 936.327L319.545 968.114L397.398 920.039M341.732 805.151L375.128 774.538L270.931 774.24L303.902 743.89M298.663 575.532L332.666 589.206M388.569 611.687L332.666 589.206M332.666 589.206L292.78 605.021M332.666 589.206L310.336 553.045" stroke="#B00000" stroke-width="5"/>
<path d="M793 254V353M793 254L825.5 281.5M793 254L762 281.5M946.25 343L968 291L987.5 343H946.25ZM946.25 343L924.5 395L968 382L946.25 343ZM600 395L574.75 352.75M574.75 352.75L549.5 310.5L621 322L652 370.5L600 281.5L574.75 352.75ZM480 476L408.5 409.5H460.5M1096.5 382L1052.5 434H1153L1096.5 487.5V382Z" stroke="#B00000" stroke-width="5"/>
</svg>
