<?xml version="1.0" encoding="UTF-8"?>
<svg xmlns="http://www.w3.org/2000/svg" xmlns:xlink="http://www.w3.org/1999/xlink" width="521pt" height="517pt" viewBox="0 0 521 517" version="1.1">
<g id="surface1">
<path style="fill:none;stroke-width:15;stroke-linecap:butt;stroke-linejoin:miter;stroke:rgb(69.019608%,0%,0%);stroke-opacity:1;stroke-miterlimit:4;" d="M 438.699796 334.176257 L 443.865943 330.20104 C 538.606031 257.251692 654.679957 216.94838 773.489593 215.717118 C 920.84219 214.204425 1060.480791 272.871132 1158.942853 377.680851 L 1173.93642 393.652079 C 1204.311015 425.981504 1230.611399 461.781915 1252.297475 500.349734 L 1254.915772 504.981625 C 1328.404211 635.600943 1345.722544 790.810324 1303.113574 937.049081 L 1297.442553 956.503022 C 1272.421965 1042.374758 1223.954115 1121.621132 1158.555392 1184.626572 C 1124.975438 1217.002901 1086.652021 1245.122582 1045.522448 1267.414289 C 965.635032 1310.684357 875.873231 1332.22558 785.817898 1329.692698 L 774.957249 1329.376088 C 643.584483 1325.694028 519.526512 1274.801862 426.26582 1186.362065 L 415.898303 1176.535421 C 371.410734 1134.344173 334.461042 1085.117142 306.505143 1030.789168 L 283.586237 986.25266 C 231.513826 885.054642 215.40484 768.917311 237.736684 655.781915 C 262.745531 529.067456 334.296665 414.548356 438.699796 334.176257 Z M 438.699796 334.176257 " transform="matrix(0.332695,0,0,0.333119,0,0)"/>
<path style="fill:none;stroke-width:10;stroke-linecap:butt;stroke-linejoin:miter;stroke:rgb(69.019608%,0%,0%);stroke-opacity:1;stroke-miterlimit:4;" d="M 763.544761 750.284212 L 766.973204 748.056214 C 782.506868 737.936412 803.12449 741.864724 812.998875 756.82749 C 822.885002 771.790256 818.294176 792.12367 802.760512 802.231746 L 799.332069 804.459744 C 783.798405 814.579545 763.180782 810.651233 753.306397 795.688467 C 743.420271 780.737427 748.011096 760.404014 763.544761 750.284212 Z M 763.544761 750.284212 " transform="matrix(0.332695,0,0,0.333119,0,0)"/>
<path style="fill:none;stroke-width:10;stroke-linecap:butt;stroke-linejoin:miter;stroke:rgb(69.019608%,0%,0%);stroke-opacity:1;stroke-miterlimit:4;" d="M 1238.795046 479.641078 L 813.879469 756.252901 L 784.033229 775.695116 M 329.259672 1071.737427 L 750.664617 797.412234 L 784.033229 775.695116 M 1085.994512 1232.809961 L 803.042301 804.47147 L 784.033229 775.695116 M 477.598533 311.79074 L 766.139575 748.595624 L 784.033229 775.695116 M 832.888541 785.040982 L 816.650402 782.297026 M 816.650402 782.297026 L 1320.74892 846.967602 M 816.650402 782.297026 L 784.033229 775.695116 M 784.033229 775.695116 L 732.770963 770.324468 C 541.200846 721.53131 433.791957 694.173839 242.221839 645.392408 M 784.033229 775.695116 L 769.685431 826.188588 L 684.267889 1314.565764 M 784.033229 775.695116 L 795.985815 729.165135 L 915.335548 233.236219 M 784.033229 775.695116 L 769.427123 688.955633 L 685.559426 221.803071 M 784.033229 775.695116 L 714.114128 724.967118 L 314.195657 463.564313 M 784.033229 775.695116 L 566.620636 820.982108 L 247.470175 880.446204 M 784.033229 775.695116 L 722.708718 856.770793 L 654.973488 954.73235 L 484.009252 1238.532398 M 784.033229 775.695116 L 802.466981 858.71736 L 837.068423 1029.874516 L 894.588772 1317.473888 M 784.033229 775.695116 L 857.779975 822.705875 L 1005.191279 920.432906 L 1241.284189 1075.431214 M 784.033229 775.695116 L 890.831574 747.317456 L 1029.847889 710.696204 L 1314.115118 649.719415 M 784.033229 775.695116 L 847.494647 681.708777 L 927.370321 569.804642 L 1094.072487 316.610251 " transform="matrix(0.332695,0,0,0.333119,0,0)"/>
<path style="fill:none;stroke-width:5;stroke-linecap:butt;stroke-linejoin:miter;stroke:rgb(69.019608%,0%,0%);stroke-opacity:1;stroke-miterlimit:4;" d="M 1258.907795 551.898574 L 1239.135542 560.681576 M 1179.807042 587.042311 L 1219.363289 569.476306 M 1219.363289 569.476306 L 1251.299469 584.087282 M 1219.363289 569.476306 L 1239.135542 560.681576 M 1239.135542 560.681576 L 1267.983775 573.228723 " transform="matrix(0.332695,0,0,0.333119,0,0)"/>
<path style="fill:none;stroke-width:5;stroke-linecap:butt;stroke-linejoin:miter;stroke:rgb(69.019608%,0%,0%);stroke-opacity:1;stroke-miterlimit:4;" d="M 1229.6721 730.771639 L 1294.659879 726.303917 L 1274.07748 779.834502 L 1231.961642 782.730899 " transform="matrix(0.332695,0,0,0.333119,0,0)"/>
<path style="fill:none;stroke-width:5;stroke-linecap:butt;stroke-linejoin:miter;stroke:rgb(69.019608%,0%,0%);stroke-opacity:1;stroke-miterlimit:4;" d="M 1266.79791 945.726547 L 1240.544491 937.858196 M 1174.664377 918.13455 L 1204.393204 927.034816 M 1204.393204 927.034816 L 1212.694263 964.25411 L 1240.544491 937.858196 M 1204.393204 927.034816 L 1240.544491 937.858196 " transform="matrix(0.332695,0,0,0.333119,0,0)"/>
<path style="fill:none;stroke-width:5;stroke-linecap:butt;stroke-linejoin:miter;stroke:rgb(69.019608%,0%,0%);stroke-opacity:1;stroke-miterlimit:4;" d="M 1092.745726 1067.140716 L 1143.808391 1110.680488 M 1115.793786 1135.774782 L 1166.84471 1130.32205 L 1143.808391 1110.680488 M 1143.808391 1110.680488 L 1109.758787 1114.995769 " transform="matrix(0.332695,0,0,0.333119,0,0)"/>
<path style="fill:none;stroke-width:5;stroke-linecap:butt;stroke-linejoin:miter;stroke:rgb(69.019608%,0%,0%);stroke-opacity:1;stroke-miterlimit:4;" d="M 981.427003 1166.884671 L 997.113304 1205.874637 M 997.113304 1205.874637 L 1012.811345 1244.852877 L 972.715001 1234.451644 Z M 997.113304 1205.874637 L 955.079655 1180.416828 " transform="matrix(0.332695,0,0,0.333119,0,0)"/>
<path style="fill:none;stroke-width:5;stroke-linecap:butt;stroke-linejoin:miter;stroke:rgb(69.019608%,0%,0%);stroke-opacity:1;stroke-miterlimit:4;" d="M 771.622736 1291.769826 L 826.947472 1253.624154 L 793.95458 1206.648574 " transform="matrix(0.332695,0,0,0.333119,0,0)"/>
<path style="fill:none;stroke-width:5;stroke-linecap:butt;stroke-linejoin:miter;stroke:rgb(69.019608%,0%,0%);stroke-opacity:1;stroke-miterlimit:4;" d="M 643.995426 1266.089217 L 617.424994 1206.402321 M 590.84282 1146.715426 L 617.424994 1206.402321 M 617.424994 1206.402321 L 573.395333 1233.595624 L 660.174859 1179.994681 M 522.978437 1053.456117 L 484.795915 1097.019342 M 484.795915 1097.019342 L 446.613394 1140.582568 L 437.420001 1085.715184 Z M 343.454834 1006.832326 L 367.277816 992.115812 M 421.299274 958.754473 L 367.277816 992.115812 M 367.277816 992.115812 L 371.023273 936.32205 L 319.549664 968.112065 L 397.394104 920.034212 M 341.728872 805.151596 L 375.132708 774.534212 L 270.929178 774.241054 L 303.898587 743.893375 M 298.661993 575.527079 L 332.664632 589.211678 M 388.564689 611.691006 L 332.664632 589.211678 M 332.664632 589.211678 L 292.779631 605.018738 M 332.664632 589.211678 L 310.332789 553.047751 " transform="matrix(0.332695,0,0,0.333119,0,0)"/>
<path style="fill:none;stroke-width:5;stroke-linecap:butt;stroke-linejoin:miter;stroke:rgb(69.019608%,0%,0%);stroke-opacity:1;stroke-miterlimit:4;" d="M 793.003539 254.003506 L 793.003539 352.996978 M 793.003539 254.003506 L 825.503299 281.501692 M 793.003539 254.003506 L 761.994917 281.501692 M 946.25024 342.994439 L 967.995022 291 L 987.497226 342.994439 Z M 946.25024 342.994439 L 924.505458 395.000604 L 967.995022 381.996132 Z M 600.00099 395.000604 L 574.745576 352.750725 M 574.745576 352.750725 L 549.501904 310.500846 L 620.994332 322.004352 L 652.002954 370.504352 L 600.00099 281.501692 Z M 480.005488 475.994197 L 408.50132 409.494318 L 460.503284 409.494318 M 1096.502924 381.996132 L 1052.496746 434.002297 L 1153.001784 434.002297 L 1096.502924 487.497703 Z M 1096.502924 381.996132 " transform="matrix(0.332695,0,0,0.333119,0,0)"/>
</g>
</svg>
